<?xml version="1.0" encoding="UTF-8" standalone="no"?>
<!DOCTYPE svg PUBLIC "-//W3C//DTD SVG 1.1//EN"
 "http://www.w3.org/Graphics/SVG/1.1/DTD/svg11.dtd">
<!-- Generated by graphviz version 2.43.0 (0)
 -->
<!-- Title: %3 Pages: 1 -->
<svg width="1424pt" height="2420pt"
 viewBox="0.00 0.00 1424.00 2420.00" xmlns="http://www.w3.org/2000/svg" xmlns:xlink="http://www.w3.org/1999/xlink">
<g id="graph0" class="graph" transform="scale(1 1) rotate(0) translate(4 2416)">
<title>%3</title>
<polygon fill="white" stroke="transparent" points="-4,4 -4,-2416 1420,-2416 1420,4 -4,4"/>
<!-- 3505598530883055372 -->
<g id="node1" class="node">
<title>3505598530883055372</title>
<polygon fill="none" stroke="black" points="496,-2412 52,-2412 52,-2376 496,-2376 496,-2412"/>
<text text-anchor="middle" x="274" y="-2389" font-family="Helvetica,sans-Serif" font-size="20.00">Assign(Assign, pickup_hours, PropertyMap)</text>
</g>
<!-- &#45;2707830172142398698 -->
<g id="node2" class="node">
<title>&#45;2707830172142398698</title>
<polygon fill="none" stroke="black" points="521.5,-2340 266.5,-2340 266.5,-2304 521.5,-2304 521.5,-2340"/>
<text text-anchor="middle" x="394" y="-2317" font-family="Helvetica,sans-Serif" font-size="20.00">PropertyMap(Projection)</text>
</g>
<!-- &#45;2707830172142398698&#45;&gt;3505598530883055372 -->
<g id="edge2" class="edge">
<title>&#45;2707830172142398698&#45;&gt;3505598530883055372</title>
<path fill="none" stroke="black" d="M364.64,-2340.12C348.95,-2349.28 329.44,-2360.66 312.55,-2370.52"/>
<polygon fill="black" stroke="black" points="310.34,-2367.75 303.47,-2375.81 313.87,-2373.79 310.34,-2367.75"/>
</g>
<!-- &#45;5964601028683564250 -->
<g id="node3" class="node">
<title>&#45;5964601028683564250</title>
<polygon fill="none" stroke="black" points="649.5,-2268 224.5,-2268 224.5,-2232 649.5,-2232 649.5,-2268"/>
<text text-anchor="middle" x="437" y="-2245" font-family="Helvetica,sans-Serif" font-size="20.00">Projection(Assign, tpep_pickup_datetime)</text>
</g>
<!-- &#45;5964601028683564250&#45;&gt;&#45;2707830172142398698 -->
<g id="edge3" class="edge">
<title>&#45;5964601028683564250&#45;&gt;&#45;2707830172142398698</title>
<path fill="none" stroke="black" d="M426.37,-2268.3C421.37,-2276.44 415.31,-2286.31 409.79,-2295.3"/>
<polygon fill="black" stroke="black" points="406.76,-2293.54 404.51,-2303.9 412.72,-2297.21 406.76,-2293.54"/>
</g>
<!-- &#45;8450204854909386252 -->
<g id="node4" class="node">
<title>&#45;8450204854909386252</title>
<polygon fill="none" stroke="black" points="573.5,-2196 58.5,-2196 58.5,-2160 573.5,-2160 573.5,-2196"/>
<text text-anchor="middle" x="316" y="-2173" font-family="Helvetica,sans-Serif" font-size="20.00">Assign(Assign, pickup_day_of_week, PropertyMap)</text>
</g>
<!-- &#45;8450204854909386252&#45;&gt;3505598530883055372 -->
<g id="edge1" class="edge">
<title>&#45;8450204854909386252&#45;&gt;3505598530883055372</title>
<path fill="none" stroke="black" d="M258.75,-2196.04C241.67,-2204.09 224.89,-2215.65 215,-2232 188.17,-2276.39 225.19,-2334.93 251.58,-2367.8"/>
<polygon fill="black" stroke="black" points="248.94,-2370.11 258.01,-2375.58 254.33,-2365.65 248.94,-2370.11"/>
</g>
<!-- &#45;8450204854909386252&#45;&gt;&#45;5964601028683564250 -->
<g id="edge4" class="edge">
<title>&#45;8450204854909386252&#45;&gt;&#45;5964601028683564250</title>
<path fill="none" stroke="black" d="M345.6,-2196.12C361.57,-2205.36 381.46,-2216.87 398.61,-2226.79"/>
<polygon fill="black" stroke="black" points="396.88,-2229.83 407.29,-2231.81 400.38,-2223.77 396.88,-2229.83"/>
</g>
<!-- 4410578107527498753 -->
<g id="node5" class="node">
<title>4410578107527498753</title>
<polygon fill="none" stroke="black" points="563.5,-2124 308.5,-2124 308.5,-2088 563.5,-2088 563.5,-2124"/>
<text text-anchor="middle" x="436" y="-2101" font-family="Helvetica,sans-Serif" font-size="20.00">PropertyMap(Projection)</text>
</g>
<!-- 4410578107527498753&#45;&gt;&#45;8450204854909386252 -->
<g id="edge5" class="edge">
<title>4410578107527498753&#45;&gt;&#45;8450204854909386252</title>
<path fill="none" stroke="black" d="M406.64,-2124.12C390.95,-2133.28 371.44,-2144.66 354.55,-2154.52"/>
<polygon fill="black" stroke="black" points="352.34,-2151.75 345.47,-2159.81 355.87,-2157.79 352.34,-2151.75"/>
</g>
<!-- 8428353839691354222 -->
<g id="node6" class="node">
<title>8428353839691354222</title>
<polygon fill="none" stroke="black" points="691.5,-2052 266.5,-2052 266.5,-2016 691.5,-2016 691.5,-2052"/>
<text text-anchor="middle" x="479" y="-2029" font-family="Helvetica,sans-Serif" font-size="20.00">Projection(Assign, tpep_pickup_datetime)</text>
</g>
<!-- 8428353839691354222&#45;&gt;4410578107527498753 -->
<g id="edge7" class="edge">
<title>8428353839691354222&#45;&gt;4410578107527498753</title>
<path fill="none" stroke="black" d="M468.37,-2052.3C463.37,-2060.44 457.31,-2070.31 451.79,-2079.3"/>
<polygon fill="black" stroke="black" points="448.76,-2077.54 446.51,-2087.9 454.72,-2081.21 448.76,-2077.54"/>
</g>
<!-- 4297158734439776125 -->
<g id="node7" class="node">
<title>4297158734439776125</title>
<polygon fill="none" stroke="black" points="589.5,-1980 126.5,-1980 126.5,-1944 589.5,-1944 589.5,-1980"/>
<text text-anchor="middle" x="358" y="-1957" font-family="Helvetica,sans-Serif" font-size="20.00">Assign(Assign, pickup_months, PropertyMap)</text>
</g>
<!-- 4297158734439776125&#45;&gt;&#45;8450204854909386252 -->
<g id="edge6" class="edge">
<title>4297158734439776125&#45;&gt;&#45;8450204854909386252</title>
<path fill="none" stroke="black" d="M300.75,-1980.04C283.67,-1988.09 266.89,-1999.65 257,-2016 230.17,-2060.39 267.19,-2118.93 293.58,-2151.8"/>
<polygon fill="black" stroke="black" points="290.94,-2154.11 300.01,-2159.58 296.33,-2149.65 290.94,-2154.11"/>
</g>
<!-- 4297158734439776125&#45;&gt;8428353839691354222 -->
<g id="edge8" class="edge">
<title>4297158734439776125&#45;&gt;8428353839691354222</title>
<path fill="none" stroke="black" d="M387.6,-1980.12C403.57,-1989.36 423.46,-2000.87 440.61,-2010.79"/>
<polygon fill="black" stroke="black" points="438.88,-2013.83 449.29,-2015.81 442.38,-2007.77 438.88,-2013.83"/>
</g>
<!-- &#45;653656702860895465 -->
<g id="node8" class="node">
<title>&#45;653656702860895465</title>
<polygon fill="none" stroke="black" points="605.5,-1908 350.5,-1908 350.5,-1872 605.5,-1872 605.5,-1908"/>
<text text-anchor="middle" x="478" y="-1885" font-family="Helvetica,sans-Serif" font-size="20.00">PropertyMap(Projection)</text>
</g>
<!-- &#45;653656702860895465&#45;&gt;4297158734439776125 -->
<g id="edge10" class="edge">
<title>&#45;653656702860895465&#45;&gt;4297158734439776125</title>
<path fill="none" stroke="black" d="M448.64,-1908.12C432.95,-1917.28 413.44,-1928.66 396.55,-1938.52"/>
<polygon fill="black" stroke="black" points="394.34,-1935.75 387.47,-1943.81 397.87,-1941.79 394.34,-1935.75"/>
</g>
<!-- &#45;6624082686264558579 -->
<g id="node9" class="node">
<title>&#45;6624082686264558579</title>
<polygon fill="none" stroke="black" points="733.5,-1836 308.5,-1836 308.5,-1800 733.5,-1800 733.5,-1836"/>
<text text-anchor="middle" x="521" y="-1813" font-family="Helvetica,sans-Serif" font-size="20.00">Projection(Assign, tpep_pickup_datetime)</text>
</g>
<!-- &#45;6624082686264558579&#45;&gt;&#45;653656702860895465 -->
<g id="edge11" class="edge">
<title>&#45;6624082686264558579&#45;&gt;&#45;653656702860895465</title>
<path fill="none" stroke="black" d="M510.37,-1836.3C505.37,-1844.44 499.31,-1854.31 493.79,-1863.3"/>
<polygon fill="black" stroke="black" points="490.76,-1861.54 488.51,-1871.9 496.72,-1865.21 490.76,-1861.54"/>
</g>
<!-- &#45;778732673124800855 -->
<g id="node10" class="node">
<title>&#45;778732673124800855</title>
<polygon fill="none" stroke="black" points="661,-1764 139,-1764 139,-1728 661,-1728 661,-1764"/>
<text text-anchor="middle" x="400" y="-1741" font-family="Helvetica,sans-Serif" font-size="20.00">Assign(Assign, tpep_dropoff_datetime, ToDatetime)</text>
</g>
<!-- &#45;778732673124800855&#45;&gt;4297158734439776125 -->
<g id="edge9" class="edge">
<title>&#45;778732673124800855&#45;&gt;4297158734439776125</title>
<path fill="none" stroke="black" d="M342.75,-1764.04C325.67,-1772.09 308.89,-1783.65 299,-1800 272.17,-1844.39 309.19,-1902.93 335.58,-1935.8"/>
<polygon fill="black" stroke="black" points="332.94,-1938.11 342.01,-1943.58 338.33,-1933.65 332.94,-1938.11"/>
</g>
<!-- &#45;778732673124800855&#45;&gt;&#45;6624082686264558579 -->
<g id="edge12" class="edge">
<title>&#45;778732673124800855&#45;&gt;&#45;6624082686264558579</title>
<path fill="none" stroke="black" d="M429.6,-1764.12C445.57,-1773.36 465.46,-1784.87 482.61,-1794.79"/>
<polygon fill="black" stroke="black" points="480.88,-1797.83 491.29,-1799.81 484.38,-1791.77 480.88,-1797.83"/>
</g>
<!-- &#45;5735066096312634367 -->
<g id="node11" class="node">
<title>&#45;5735066096312634367</title>
<polygon fill="none" stroke="black" points="643,-1692 401,-1692 401,-1656 643,-1656 643,-1692"/>
<text text-anchor="middle" x="522" y="-1669" font-family="Helvetica,sans-Serif" font-size="20.00">ToDatetime(Projection)</text>
</g>
<!-- &#45;5735066096312634367&#45;&gt;&#45;778732673124800855 -->
<g id="edge13" class="edge">
<title>&#45;5735066096312634367&#45;&gt;&#45;778732673124800855</title>
<path fill="none" stroke="black" d="M492.16,-1692.12C476.06,-1701.36 456,-1712.87 438.71,-1722.79"/>
<polygon fill="black" stroke="black" points="436.89,-1719.8 429.96,-1727.81 440.37,-1725.87 436.89,-1719.8"/>
</g>
<!-- &#45;8793561446690435443 -->
<g id="node12" class="node">
<title>&#45;8793561446690435443</title>
<polygon fill="none" stroke="black" points="784,-1620 354,-1620 354,-1584 784,-1584 784,-1620"/>
<text text-anchor="middle" x="569" y="-1597" font-family="Helvetica,sans-Serif" font-size="20.00">Projection(Assign, tpep_dropoff_datetime)</text>
</g>
<!-- &#45;8793561446690435443&#45;&gt;&#45;5735066096312634367 -->
<g id="edge15" class="edge">
<title>&#45;8793561446690435443&#45;&gt;&#45;5735066096312634367</title>
<path fill="none" stroke="black" d="M557.38,-1620.3C551.86,-1628.53 545.15,-1638.52 539.07,-1647.58"/>
<polygon fill="black" stroke="black" points="536.15,-1645.64 533.48,-1655.9 541.96,-1649.54 536.15,-1645.64"/>
</g>
<!-- 8913723455484560284 -->
<g id="node13" class="node">
<title>8913723455484560284</title>
<polygon fill="none" stroke="black" points="706,-1548 188,-1548 188,-1512 706,-1512 706,-1548"/>
<text text-anchor="middle" x="447" y="-1525" font-family="Helvetica,sans-Serif" font-size="20.00">Assign(Assign, tpep_pickup_datetime, ToDatetime)</text>
</g>
<!-- 8913723455484560284&#45;&gt;&#45;778732673124800855 -->
<g id="edge14" class="edge">
<title>8913723455484560284&#45;&gt;&#45;778732673124800855</title>
<path fill="none" stroke="black" d="M388.93,-1548.04C371.77,-1556.08 354.94,-1567.63 345,-1584 318.26,-1628.03 353.48,-1686.8 378.65,-1719.78"/>
<polygon fill="black" stroke="black" points="376.17,-1722.29 385.11,-1727.98 381.67,-1717.96 376.17,-1722.29"/>
</g>
<!-- 8913723455484560284&#45;&gt;&#45;8793561446690435443 -->
<g id="edge16" class="edge">
<title>8913723455484560284&#45;&gt;&#45;8793561446690435443</title>
<path fill="none" stroke="black" d="M476.84,-1548.12C492.94,-1557.36 513,-1568.87 530.29,-1578.79"/>
<polygon fill="black" stroke="black" points="528.63,-1581.87 539.04,-1583.81 532.11,-1575.8 528.63,-1581.87"/>
</g>
<!-- 5892324695022989034 -->
<g id="node14" class="node">
<title>5892324695022989034</title>
<polygon fill="none" stroke="black" points="689,-1476 447,-1476 447,-1440 689,-1440 689,-1476"/>
<text text-anchor="middle" x="568" y="-1453" font-family="Helvetica,sans-Serif" font-size="20.00">ToDatetime(Projection)</text>
</g>
<!-- 5892324695022989034&#45;&gt;8913723455484560284 -->
<g id="edge17" class="edge">
<title>5892324695022989034&#45;&gt;8913723455484560284</title>
<path fill="none" stroke="black" d="M538.4,-1476.12C522.43,-1485.36 502.54,-1496.87 485.39,-1506.79"/>
<polygon fill="black" stroke="black" points="483.62,-1503.77 476.71,-1511.81 487.12,-1509.83 483.62,-1503.77"/>
</g>
<!-- 4525101637067442617 -->
<g id="node15" class="node">
<title>4525101637067442617</title>
<polygon fill="none" stroke="black" points="826.5,-1404 401.5,-1404 401.5,-1368 826.5,-1368 826.5,-1404"/>
<text text-anchor="middle" x="614" y="-1381" font-family="Helvetica,sans-Serif" font-size="20.00">Projection(Assign, tpep_pickup_datetime)</text>
</g>
<!-- 4525101637067442617&#45;&gt;5892324695022989034 -->
<g id="edge19" class="edge">
<title>4525101637067442617&#45;&gt;5892324695022989034</title>
<path fill="none" stroke="black" d="M602.63,-1404.3C597.28,-1412.44 590.8,-1422.31 584.89,-1431.3"/>
<polygon fill="black" stroke="black" points="581.81,-1429.62 579.24,-1439.9 587.66,-1433.46 581.81,-1429.62"/>
</g>
<!-- &#45;7000040375928986301 -->
<g id="node16" class="node">
<title>&#45;7000040375928986301</title>
<polygon fill="none" stroke="black" points="715,-1332 271,-1332 271,-1296 715,-1296 715,-1332"/>
<text text-anchor="middle" x="493" y="-1309" font-family="Helvetica,sans-Serif" font-size="20.00">Assign(Assign, pickup_hours, PropertyMap)</text>
</g>
<!-- &#45;7000040375928986301&#45;&gt;8913723455484560284 -->
<g id="edge18" class="edge">
<title>&#45;7000040375928986301&#45;&gt;8913723455484560284</title>
<path fill="none" stroke="black" d="M435.75,-1332.04C418.67,-1340.09 401.89,-1351.65 392,-1368 365.35,-1412.09 400.54,-1470.83 425.68,-1503.8"/>
<polygon fill="black" stroke="black" points="423.19,-1506.3 432.13,-1511.99 428.69,-1501.97 423.19,-1506.3"/>
</g>
<!-- &#45;7000040375928986301&#45;&gt;4525101637067442617 -->
<g id="edge20" class="edge">
<title>&#45;7000040375928986301&#45;&gt;4525101637067442617</title>
<path fill="none" stroke="black" d="M522.6,-1332.12C538.57,-1341.36 558.46,-1352.87 575.61,-1362.79"/>
<polygon fill="black" stroke="black" points="573.88,-1365.83 584.29,-1367.81 577.38,-1359.77 573.88,-1365.83"/>
</g>
<!-- 4826499215738320981 -->
<g id="node17" class="node">
<title>4826499215738320981</title>
<polygon fill="none" stroke="black" points="740.5,-1260 485.5,-1260 485.5,-1224 740.5,-1224 740.5,-1260"/>
<text text-anchor="middle" x="613" y="-1237" font-family="Helvetica,sans-Serif" font-size="20.00">PropertyMap(Projection)</text>
</g>
<!-- 4826499215738320981&#45;&gt;&#45;7000040375928986301 -->
<g id="edge22" class="edge">
<title>4826499215738320981&#45;&gt;&#45;7000040375928986301</title>
<path fill="none" stroke="black" d="M583.64,-1260.12C567.95,-1269.28 548.44,-1280.66 531.55,-1290.52"/>
<polygon fill="black" stroke="black" points="529.34,-1287.75 522.47,-1295.81 532.87,-1293.79 529.34,-1287.75"/>
</g>
<!-- &#45;2844328101806185447 -->
<g id="node18" class="node">
<title>&#45;2844328101806185447</title>
<polygon fill="none" stroke="black" points="868.5,-1188 443.5,-1188 443.5,-1152 868.5,-1152 868.5,-1188"/>
<text text-anchor="middle" x="656" y="-1165" font-family="Helvetica,sans-Serif" font-size="20.00">Projection(Assign, tpep_pickup_datetime)</text>
</g>
<!-- &#45;2844328101806185447&#45;&gt;4826499215738320981 -->
<g id="edge23" class="edge">
<title>&#45;2844328101806185447&#45;&gt;4826499215738320981</title>
<path fill="none" stroke="black" d="M645.37,-1188.3C640.37,-1196.44 634.31,-1206.31 628.79,-1215.3"/>
<polygon fill="black" stroke="black" points="625.76,-1213.54 623.51,-1223.9 631.72,-1217.21 625.76,-1213.54"/>
</g>
<!-- 8287046281304359818 -->
<g id="node19" class="node">
<title>8287046281304359818</title>
<polygon fill="none" stroke="black" points="792.5,-1116 277.5,-1116 277.5,-1080 792.5,-1080 792.5,-1116"/>
<text text-anchor="middle" x="535" y="-1093" font-family="Helvetica,sans-Serif" font-size="20.00">Assign(Assign, pickup_day_of_week, PropertyMap)</text>
</g>
<!-- 8287046281304359818&#45;&gt;&#45;7000040375928986301 -->
<g id="edge21" class="edge">
<title>8287046281304359818&#45;&gt;&#45;7000040375928986301</title>
<path fill="none" stroke="black" d="M477.75,-1116.04C460.67,-1124.09 443.89,-1135.65 434,-1152 407.17,-1196.39 444.19,-1254.93 470.58,-1287.8"/>
<polygon fill="black" stroke="black" points="467.94,-1290.11 477.01,-1295.58 473.33,-1285.65 467.94,-1290.11"/>
</g>
<!-- 8287046281304359818&#45;&gt;&#45;2844328101806185447 -->
<g id="edge24" class="edge">
<title>8287046281304359818&#45;&gt;&#45;2844328101806185447</title>
<path fill="none" stroke="black" d="M564.6,-1116.12C580.57,-1125.36 600.46,-1136.87 617.61,-1146.79"/>
<polygon fill="black" stroke="black" points="615.88,-1149.83 626.29,-1151.81 619.38,-1143.77 615.88,-1149.83"/>
</g>
<!-- &#45;1230122715225265604 -->
<g id="node20" class="node">
<title>&#45;1230122715225265604</title>
<polygon fill="none" stroke="black" points="782.5,-1044 527.5,-1044 527.5,-1008 782.5,-1008 782.5,-1044"/>
<text text-anchor="middle" x="655" y="-1021" font-family="Helvetica,sans-Serif" font-size="20.00">PropertyMap(Projection)</text>
</g>
<!-- &#45;1230122715225265604&#45;&gt;8287046281304359818 -->
<g id="edge26" class="edge">
<title>&#45;1230122715225265604&#45;&gt;8287046281304359818</title>
<path fill="none" stroke="black" d="M625.64,-1044.12C609.95,-1053.28 590.44,-1064.66 573.55,-1074.52"/>
<polygon fill="black" stroke="black" points="571.34,-1071.75 564.47,-1079.81 574.87,-1077.79 571.34,-1071.75"/>
</g>
<!-- 7442184936312179062 -->
<g id="node21" class="node">
<title>7442184936312179062</title>
<polygon fill="none" stroke="black" points="910.5,-972 485.5,-972 485.5,-936 910.5,-936 910.5,-972"/>
<text text-anchor="middle" x="698" y="-949" font-family="Helvetica,sans-Serif" font-size="20.00">Projection(Assign, tpep_pickup_datetime)</text>
</g>
<!-- 7442184936312179062&#45;&gt;&#45;1230122715225265604 -->
<g id="edge27" class="edge">
<title>7442184936312179062&#45;&gt;&#45;1230122715225265604</title>
<path fill="none" stroke="black" d="M687.37,-972.3C682.37,-980.44 676.31,-990.31 670.79,-999.3"/>
<polygon fill="black" stroke="black" points="667.76,-997.54 665.51,-1007.9 673.72,-1001.21 667.76,-997.54"/>
</g>
<!-- &#45;8023099582063637964 -->
<g id="node22" class="node">
<title>&#45;8023099582063637964</title>
<polygon fill="none" stroke="black" points="808.5,-900 345.5,-900 345.5,-864 808.5,-864 808.5,-900"/>
<text text-anchor="middle" x="577" y="-877" font-family="Helvetica,sans-Serif" font-size="20.00">Assign(Assign, pickup_months, PropertyMap)</text>
</g>
<!-- &#45;8023099582063637964&#45;&gt;8287046281304359818 -->
<g id="edge25" class="edge">
<title>&#45;8023099582063637964&#45;&gt;8287046281304359818</title>
<path fill="none" stroke="black" d="M519.75,-900.04C502.67,-908.09 485.89,-919.65 476,-936 449.17,-980.39 486.19,-1038.93 512.58,-1071.8"/>
<polygon fill="black" stroke="black" points="509.94,-1074.11 519.01,-1079.58 515.33,-1069.65 509.94,-1074.11"/>
</g>
<!-- &#45;8023099582063637964&#45;&gt;7442184936312179062 -->
<g id="edge28" class="edge">
<title>&#45;8023099582063637964&#45;&gt;7442184936312179062</title>
<path fill="none" stroke="black" d="M606.6,-900.12C622.57,-909.36 642.46,-920.87 659.61,-930.79"/>
<polygon fill="black" stroke="black" points="657.88,-933.83 668.29,-935.81 661.38,-927.77 657.88,-933.83"/>
</g>
<!-- 6947616761879410837 -->
<g id="node23" class="node">
<title>6947616761879410837</title>
<polygon fill="none" stroke="black" points="824.5,-828 569.5,-828 569.5,-792 824.5,-792 824.5,-828"/>
<text text-anchor="middle" x="697" y="-805" font-family="Helvetica,sans-Serif" font-size="20.00">PropertyMap(Projection)</text>
</g>
<!-- 6947616761879410837&#45;&gt;&#45;8023099582063637964 -->
<g id="edge30" class="edge">
<title>6947616761879410837&#45;&gt;&#45;8023099582063637964</title>
<path fill="none" stroke="black" d="M667.64,-828.12C651.95,-837.28 632.44,-848.66 615.55,-858.52"/>
<polygon fill="black" stroke="black" points="613.34,-855.75 606.47,-863.81 616.87,-861.79 613.34,-855.75"/>
</g>
<!-- 3700868043129976674 -->
<g id="node24" class="node">
<title>3700868043129976674</title>
<polygon fill="none" stroke="black" points="952.5,-756 527.5,-756 527.5,-720 952.5,-720 952.5,-756"/>
<text text-anchor="middle" x="740" y="-733" font-family="Helvetica,sans-Serif" font-size="20.00">Projection(Assign, tpep_pickup_datetime)</text>
</g>
<!-- 3700868043129976674&#45;&gt;6947616761879410837 -->
<g id="edge31" class="edge">
<title>3700868043129976674&#45;&gt;6947616761879410837</title>
<path fill="none" stroke="black" d="M729.37,-756.3C724.37,-764.44 718.31,-774.31 712.79,-783.3"/>
<polygon fill="black" stroke="black" points="709.76,-781.54 707.51,-791.9 715.72,-785.21 709.76,-781.54"/>
</g>
<!-- 5554724382294681112 -->
<g id="node25" class="node">
<title>5554724382294681112</title>
<polygon fill="none" stroke="black" points="880,-684 358,-684 358,-648 880,-648 880,-684"/>
<text text-anchor="middle" x="619" y="-661" font-family="Helvetica,sans-Serif" font-size="20.00">Assign(Assign, tpep_dropoff_datetime, ToDatetime)</text>
</g>
<!-- 5554724382294681112&#45;&gt;&#45;8023099582063637964 -->
<g id="edge29" class="edge">
<title>5554724382294681112&#45;&gt;&#45;8023099582063637964</title>
<path fill="none" stroke="black" d="M561.75,-684.04C544.67,-692.09 527.89,-703.65 518,-720 491.17,-764.39 528.19,-822.93 554.58,-855.8"/>
<polygon fill="black" stroke="black" points="551.94,-858.11 561.01,-863.58 557.33,-853.65 551.94,-858.11"/>
</g>
<!-- 5554724382294681112&#45;&gt;3700868043129976674 -->
<g id="edge32" class="edge">
<title>5554724382294681112&#45;&gt;3700868043129976674</title>
<path fill="none" stroke="black" d="M648.6,-684.12C664.57,-693.36 684.46,-704.87 701.61,-714.79"/>
<polygon fill="black" stroke="black" points="699.88,-717.83 710.29,-719.81 703.38,-711.77 699.88,-717.83"/>
</g>
<!-- &#45;1408846161061469167 -->
<g id="node26" class="node">
<title>&#45;1408846161061469167</title>
<polygon fill="none" stroke="black" points="862,-612 620,-612 620,-576 862,-576 862,-612"/>
<text text-anchor="middle" x="741" y="-589" font-family="Helvetica,sans-Serif" font-size="20.00">ToDatetime(Projection)</text>
</g>
<!-- &#45;1408846161061469167&#45;&gt;5554724382294681112 -->
<g id="edge33" class="edge">
<title>&#45;1408846161061469167&#45;&gt;5554724382294681112</title>
<path fill="none" stroke="black" d="M711.16,-612.12C695.06,-621.36 675,-632.87 657.71,-642.79"/>
<polygon fill="black" stroke="black" points="655.89,-639.8 648.96,-647.81 659.37,-645.87 655.89,-639.8"/>
</g>
<!-- 7554470450679278112 -->
<g id="node27" class="node">
<title>7554470450679278112</title>
<polygon fill="none" stroke="black" points="1003,-540 573,-540 573,-504 1003,-504 1003,-540"/>
<text text-anchor="middle" x="788" y="-517" font-family="Helvetica,sans-Serif" font-size="20.00">Projection(Assign, tpep_dropoff_datetime)</text>
</g>
<!-- 7554470450679278112&#45;&gt;&#45;1408846161061469167 -->
<g id="edge35" class="edge">
<title>7554470450679278112&#45;&gt;&#45;1408846161061469167</title>
<path fill="none" stroke="black" d="M776.38,-540.3C770.86,-548.53 764.15,-558.52 758.07,-567.58"/>
<polygon fill="black" stroke="black" points="755.15,-565.64 752.48,-575.9 760.96,-569.54 755.15,-565.64"/>
</g>
<!-- &#45;5483932706459730132 -->
<g id="node28" class="node">
<title>&#45;5483932706459730132</title>
<polygon fill="none" stroke="black" points="916,-468 416,-468 416,-432 916,-432 916,-468"/>
<text text-anchor="middle" x="666" y="-445" font-family="Helvetica,sans-Serif" font-size="20.00">Assign(Drop, tpep_pickup_datetime, ToDatetime)</text>
</g>
<!-- &#45;5483932706459730132&#45;&gt;5554724382294681112 -->
<g id="edge34" class="edge">
<title>&#45;5483932706459730132&#45;&gt;5554724382294681112</title>
<path fill="none" stroke="black" d="M607.93,-468.04C590.77,-476.08 573.94,-487.63 564,-504 537.26,-548.03 572.48,-606.8 597.65,-639.78"/>
<polygon fill="black" stroke="black" points="595.17,-642.29 604.11,-647.98 600.67,-637.96 595.17,-642.29"/>
</g>
<!-- &#45;5483932706459730132&#45;&gt;7554470450679278112 -->
<g id="edge36" class="edge">
<title>&#45;5483932706459730132&#45;&gt;7554470450679278112</title>
<path fill="none" stroke="black" d="M695.84,-468.12C711.94,-477.36 732,-488.87 749.29,-498.79"/>
<polygon fill="black" stroke="black" points="747.63,-501.87 758.04,-503.81 751.11,-495.8 747.63,-501.87"/>
</g>
<!-- 830059019532350861 -->
<g id="node29" class="node">
<title>830059019532350861</title>
<polygon fill="none" stroke="black" points="903,-396 661,-396 661,-360 903,-360 903,-396"/>
<text text-anchor="middle" x="782" y="-373" font-family="Helvetica,sans-Serif" font-size="20.00">ToDatetime(Projection)</text>
</g>
<!-- 830059019532350861&#45;&gt;&#45;5483932706459730132 -->
<g id="edge37" class="edge">
<title>830059019532350861&#45;&gt;&#45;5483932706459730132</title>
<path fill="none" stroke="black" d="M753.62,-396.12C738.46,-405.28 719.59,-416.66 703.26,-426.52"/>
<polygon fill="black" stroke="black" points="701.24,-423.65 694.49,-431.81 704.86,-429.64 701.24,-423.65"/>
</g>
<!-- 1979110631792299763 -->
<g id="node30" class="node">
<title>1979110631792299763</title>
<polygon fill="none" stroke="black" points="1028,-324 620,-324 620,-288 1028,-288 1028,-324"/>
<text text-anchor="middle" x="824" y="-301" font-family="Helvetica,sans-Serif" font-size="20.00">Projection(Drop, tpep_pickup_datetime)</text>
</g>
<!-- 1979110631792299763&#45;&gt;830059019532350861 -->
<g id="edge39" class="edge">
<title>1979110631792299763&#45;&gt;830059019532350861</title>
<path fill="none" stroke="black" d="M813.62,-324.3C808.74,-332.44 802.81,-342.31 797.42,-351.3"/>
<polygon fill="black" stroke="black" points="794.41,-349.52 792.26,-359.9 800.41,-353.12 794.41,-349.52"/>
</g>
<!-- 4258493805065890854 -->
<g id="node31" class="node">
<title>4258493805065890854</title>
<polygon fill="none" stroke="black" points="782.5,-252 633.5,-252 633.5,-216 782.5,-216 782.5,-252"/>
<text text-anchor="middle" x="708" y="-229" font-family="Helvetica,sans-Serif" font-size="20.00">Drop(Concat)</text>
</g>
<!-- 4258493805065890854&#45;&gt;&#45;5483932706459730132 -->
<g id="edge38" class="edge">
<title>4258493805065890854&#45;&gt;&#45;5483932706459730132</title>
<path fill="none" stroke="black" d="M653.98,-252.04C637.23,-260.15 620.64,-271.74 611,-288 584.86,-332.08 619.41,-390.36 644.4,-423.35"/>
<polygon fill="black" stroke="black" points="641.9,-425.83 650.82,-431.56 647.41,-421.52 641.9,-425.83"/>
</g>
<!-- 4258493805065890854&#45;&gt;1979110631792299763 -->
<g id="edge40" class="edge">
<title>4258493805065890854&#45;&gt;1979110631792299763</title>
<path fill="none" stroke="black" d="M736.38,-252.12C751.54,-261.28 770.41,-272.66 786.74,-282.52"/>
<polygon fill="black" stroke="black" points="785.14,-285.64 795.51,-287.81 788.76,-279.65 785.14,-285.64"/>
</g>
<!-- 591034017049705381 -->
<g id="node32" class="node">
<title>591034017049705381</title>
<polygon fill="none" stroke="black" points="1112.5,-180 303.5,-180 303.5,-144 1112.5,-144 1112.5,-180"/>
<text text-anchor="middle" x="708" y="-157" font-family="Helvetica,sans-Serif" font-size="20.00">Concat(ArrowStringConversion, ArrowStringConversion, ArrowStringConversion)</text>
</g>
<!-- 591034017049705381&#45;&gt;4258493805065890854 -->
<g id="edge41" class="edge">
<title>591034017049705381&#45;&gt;4258493805065890854</title>
<path fill="none" stroke="black" d="M708,-180.3C708,-188.02 708,-197.29 708,-205.89"/>
<polygon fill="black" stroke="black" points="704.5,-205.9 708,-215.9 711.5,-205.9 704.5,-205.9"/>
</g>
<!-- &#45;2948331485038535412 -->
<g id="node33" class="node">
<title>&#45;2948331485038535412</title>
<polygon fill="none" stroke="black" points="460,-108 0,-108 0,-72 460,-72 460,-108"/>
<text text-anchor="middle" x="230" y="-85" font-family="Helvetica,sans-Serif" font-size="20.00">ArrowStringConversion(FromMapProjectable)</text>
</g>
<!-- &#45;2948331485038535412&#45;&gt;591034017049705381 -->
<g id="edge43" class="edge">
<title>&#45;2948331485038535412&#45;&gt;591034017049705381</title>
<path fill="none" stroke="black" d="M346.32,-108.03C417.45,-118.45 508.47,-131.78 581.41,-142.46"/>
<polygon fill="black" stroke="black" points="581.17,-145.96 591.57,-143.95 582.19,-139.04 581.17,-145.96"/>
</g>
<!-- 7711236099959616450 -->
<g id="node34" class="node">
<title>7711236099959616450</title>
<polygon fill="none" stroke="black" points="338.5,-36 121.5,-36 121.5,0 338.5,0 338.5,-36"/>
<text text-anchor="middle" x="230" y="-13" font-family="Helvetica,sans-Serif" font-size="20.00">FromMapProjectable</text>
</g>
<!-- 7711236099959616450&#45;&gt;&#45;2948331485038535412 -->
<g id="edge45" class="edge">
<title>7711236099959616450&#45;&gt;&#45;2948331485038535412</title>
<path fill="none" stroke="black" d="M230,-36.3C230,-44.02 230,-53.29 230,-61.89"/>
<polygon fill="black" stroke="black" points="226.5,-61.9 230,-71.9 233.5,-61.9 226.5,-61.9"/>
</g>
<!-- 3975519287052663425 -->
<g id="node35" class="node">
<title>3975519287052663425</title>
<polygon fill="none" stroke="black" points="938,-108 478,-108 478,-72 938,-72 938,-108"/>
<text text-anchor="middle" x="708" y="-85" font-family="Helvetica,sans-Serif" font-size="20.00">ArrowStringConversion(FromMapProjectable)</text>
</g>
<!-- 3975519287052663425&#45;&gt;591034017049705381 -->
<g id="edge42" class="edge">
<title>3975519287052663425&#45;&gt;591034017049705381</title>
<path fill="none" stroke="black" d="M708,-108.3C708,-116.02 708,-125.29 708,-133.89"/>
<polygon fill="black" stroke="black" points="704.5,-133.9 708,-143.9 711.5,-133.9 704.5,-133.9"/>
</g>
<!-- 7648681201879247445 -->
<g id="node36" class="node">
<title>7648681201879247445</title>
<polygon fill="none" stroke="black" points="816.5,-36 599.5,-36 599.5,0 816.5,0 816.5,-36"/>
<text text-anchor="middle" x="708" y="-13" font-family="Helvetica,sans-Serif" font-size="20.00">FromMapProjectable</text>
</g>
<!-- 7648681201879247445&#45;&gt;3975519287052663425 -->
<g id="edge46" class="edge">
<title>7648681201879247445&#45;&gt;3975519287052663425</title>
<path fill="none" stroke="black" d="M708,-36.3C708,-44.02 708,-53.29 708,-61.89"/>
<polygon fill="black" stroke="black" points="704.5,-61.9 708,-71.9 711.5,-61.9 704.5,-61.9"/>
</g>
<!-- 2434897995101392045 -->
<g id="node37" class="node">
<title>2434897995101392045</title>
<polygon fill="none" stroke="black" points="1416,-108 956,-108 956,-72 1416,-72 1416,-108"/>
<text text-anchor="middle" x="1186" y="-85" font-family="Helvetica,sans-Serif" font-size="20.00">ArrowStringConversion(FromMapProjectable)</text>
</g>
<!-- 2434897995101392045&#45;&gt;591034017049705381 -->
<g id="edge44" class="edge">
<title>2434897995101392045&#45;&gt;591034017049705381</title>
<path fill="none" stroke="black" d="M1069.68,-108.03C998.55,-118.45 907.53,-131.78 834.59,-142.46"/>
<polygon fill="black" stroke="black" points="833.81,-139.04 824.43,-143.95 834.83,-145.96 833.81,-139.04"/>
</g>
<!-- 4873498415665528371 -->
<g id="node38" class="node">
<title>4873498415665528371</title>
<polygon fill="none" stroke="black" points="1294.5,-36 1077.5,-36 1077.5,0 1294.5,0 1294.5,-36"/>
<text text-anchor="middle" x="1186" y="-13" font-family="Helvetica,sans-Serif" font-size="20.00">FromMapProjectable</text>
</g>
<!-- 4873498415665528371&#45;&gt;2434897995101392045 -->
<g id="edge47" class="edge">
<title>4873498415665528371&#45;&gt;2434897995101392045</title>
<path fill="none" stroke="black" d="M1186,-36.3C1186,-44.02 1186,-53.29 1186,-61.89"/>
<polygon fill="black" stroke="black" points="1182.5,-61.9 1186,-71.9 1189.5,-61.9 1182.5,-61.9"/>
</g>
</g>
</svg>
